# xmcd CD database file
#
# Track frame offsets:
#	150
#	24057
#	54639
#	83087
#	101285
#	120441
#	142143
#	170297
#	202520
#	227324
#	255647
#	282408
#
# Disc length: 4099 seconds
#
# Revision: 0
# Processed by: cddbd v1.5.2PL0 Copyright (c) Steve Scherf et al.
# Submitted via: CDex 1.51
#
DISCID=8b10010c
DTITLE=Till Brönner - Till Brönner
DYEAR=2012
DGENRE=Jazz
TTITLE0=Will of Nature
TTITLE1=F.F.H.
TTITLE2=Return To The Fold
TTITLE3=Gibraltar
TTITLE4=Pegasus
TTITLE5=Red Street
TTITLE6=Condor
TTITLE7=Lazy Afternoon
TTITLE8=Wacky Wes
TTITLE9=The Gate
TTITLE10=Half Story
TTITLE11=Once Upon A Summertimr
EXTD=YEAR: 2012
EXTT0=
EXTT1=
EXTT2=
EXTT3=
EXTT4=
EXTT5=
EXTT6=
EXTT7=
EXTT8=
EXTT9=
EXTT10=
EXTT11=
PLAYORDER=
